<svg xmlns="http://www.w3.org/2000/svg" viewBox="0 0 32 32">
  <defs>
    <linearGradient id="favicon-grad" x1="0%" y1="0%" x2="100%" y2="100%">
      <stop offset="0%" style="stop-color:#6366f1"/>
      <stop offset="100%" style="stop-color:#22d3ee"/>
    </linearGradient>
  </defs>
  <rect width="32" height="32" rx="6" fill="url(#favicon-grad)"/>
  <path d="M8 6 L8 26 L18 26 C22 26 25 23 25 19 C25 16 23 14 20 13 C22 12 24 10 24 8 C24 5 21 6 18 6 Z M11 10 L17 10 C19 10 20 11 20 13 C20 14 19 15 17 15 L11 15 Z M11 18 L18 18 C20 18 22 19 22 21 C22 23 20 24 18 24 L11 24 Z" fill="white"/>
  <circle cx="24" cy="8" r="1.5" fill="#22d3ee"/>
</svg>
