<svg xmlns="http://www.w3.org/2000/svg" viewBox="0 0 600 160" fill="none">
  <defs>
    <linearGradient id="wordmark-grad" x1="0%" y1="0%" x2="100%" y2="0%">
      <stop offset="0%" style="stop-color:#6366f1"/>
      <stop offset="60%" style="stop-color:#818cf8"/>
      <stop offset="100%" style="stop-color:#22d3ee"/>
    </linearGradient>
  </defs>

  <!-- Icon -->
  <g transform="translate(0, 16)">
    <rect x="0" y="0" width="128" height="128" rx="28" fill="url(#wordmark-grad)"/>
    <path d="M40 36 L40 100 L76 100 C92 100 102 91 102 78 C102 68 96 62 86 60 C94 58 100 52 100 43 C100 32 91 36 76 36 Z M54 50 L74 50 C82 50 86 54 86 59 C86 64 82 68 74 68 L54 68 Z M54 82 L76 82 C86 82 90 87 90 93 C90 99 86 102 76 102 L54 102 Z" fill="white"/>
    <circle cx="100" cy="43" r="4" fill="#22d3ee" opacity="0.8"/>
    <circle cx="104" cy="52" r="3" fill="#22d3ee" opacity="0.5"/>
  </g>

  <!-- Wordmark -->
  <text x="152" y="108" font-family="system-ui, -apple-system, sans-serif" font-size="72" font-weight="800" fill="white" letter-spacing="-2">
    Bou
  </text>
  <text x="340" y="108" font-family="system-ui, -apple-system, sans-serif" font-size="72" font-weight="800" fill="url(#wordmark-grad)" letter-spacing="-2">
    bane
  </text>
</svg>
